<svg width="32" height="32" viewBox="0 0 32 32" fill="none" xmlns="http://www.w3.org/2000/svg">
<path d="M17.3112 1.05651L19.4145 1.61818L17.2828 9.54704C16.872 9.4705 16.4484 9.43048 16.0154 9.43048C15.6848 9.43048 15.3596 9.45382 15.0414 9.49895L17.3112 1.05651ZM26.0608 5.29481L20.3591 10.9771C19.7795 10.5034 19.1206 10.1225 18.4054 9.85729L24.5221 3.76135L26.0608 5.29481ZM13.7825 9.80122C13.0651 10.0475 12.4014 10.4091 11.8139 10.864L9.57942 2.55325L11.6828 1.99158L13.7825 9.80122ZM7.47807 28.345L5.93938 26.8115L11.4272 21.3423C11.978 21.8372 12.61 22.2445 13.301 22.5418L7.47807 28.345ZM20.3176 30.1149L18.3243 22.701C19.0408 22.4456 19.7021 22.0747 20.2855 21.6112L22.4209 29.5532L20.3176 30.1149ZM30.1108 11.7485L22.4133 13.8041C22.1381 13.0934 21.7472 12.4402 21.2637 11.8674L29.548 9.6552L30.1108 11.7485ZM22.7685 15.0806L30.9427 17.2635L30.3799 19.3568L22.7881 17.3295C22.8426 16.9822 22.8709 16.6264 22.8709 16.2644C22.8709 15.8606 22.8358 15.4651 22.7685 15.0806ZM1.88923 20.3578L9.47904 18.3311C9.70689 19.0479 10.05 19.7133 10.4864 20.3057L2.45204 22.4511L1.88923 20.3578ZM12.6841 30.3823L14.6775 22.9681C15.1106 23.0536 15.5581 23.0983 16.0156 23.0983C16.3194 23.0983 16.6188 23.0786 16.9124 23.0404L14.7874 30.9439L12.6841 30.3823ZM26.7949 26.0799L21.3067 20.6102C21.7829 20.0346 22.1667 19.3796 22.435 18.6678L28.3336 24.5464L26.7949 26.0799ZM9.20111 17.0173L1.05735 14.8426L1.62017 12.7493L9.31666 14.8046C9.21401 15.2749 9.15993 15.7633 9.15993 16.2644C9.15993 16.5187 9.1739 16.7699 9.20111 17.0173ZM9.7084 13.5814L3.66644 7.5599L5.20514 6.02643L10.906 11.7079C10.4109 12.2591 10.0043 12.891 9.7084 13.5814Z" fill="url(#paint0_linear_72_17)" fillOpacity="0.88" stroke="url(#paint1_linear_72_17)"/>
<defs>
<linearGradient id="paint0_linear_72_17" x1="16" y1="0.444656" x2="16" y2="47.6201" gradientUnits="userSpaceOnUse">
<stop offset="0.313079" stop-color="white"/>
<stop offset="1" stop-color="white" stopOpacity="0"/>
</linearGradient>
<linearGradient id="paint1_linear_72_17" x1="70.914" y1="-75.0657" x2="-20.6226" y2="-0.807192" gradientUnits="userSpaceOnUse">
<stop stop-color="white"/>
<stop offset="1" stop-color="white" stopOpacity="0"/>
</linearGradient>
</defs>
</svg>
